<svg width="38" height="38" viewBox="0 0 38 38" fill="none" xmlns="http://www.w3.org/2000/svg">
<path d="M34.1482 28.733C34.9715 28.6011 36.1437 28.1488 36.5549 27.5423C36.9349 26.9817 37.0615 26.4212 37.0615 25.3V17.3427C37.0615 16.518 36.9566 15.6818 36.4391 15.1C35.9215 14.5183 34.9715 14.4004 34.1482 14.4004H27.6249C25.9163 14.4156 22.0797 14.2468 21.4182 18.0128C20.7567 21.7789 18.317 22.2442 18.0615 22.4973V25.3C18.0615 26.1867 18.1249 27.044 18.5682 27.5423C19.0115 28.0405 19.3915 28.6011 20.9749 28.733H28.8352L34.1482 32.4004V28.733Z" fill="#D5FAF1"/>
<path d="M21.7646 5C22.453 5 23.1138 5.33802 23.6006 5.93848C24.0871 6.53887 24.3603 7.35319 24.3604 8.20215V21.0098C24.3603 21.8587 24.0872 22.6731 23.6006 23.2734C23.1138 23.8739 22.453 24.2109 21.7646 24.2109H11.0195L4.89355 29.5264V24.2109H3.5957C2.90739 24.2109 2.24749 23.8738 1.76074 23.2734C1.27404 22.6731 1.00007 21.8588 1 21.0098V8.20215C1.00002 7.35301 1.27399 6.53891 1.76074 5.93848C2.2475 5.33805 2.90733 5.00001 3.5957 5H21.7646ZM10.5938 15.7354C10.3853 15.5543 10.0688 15.5767 9.8877 15.7852C9.70684 15.9936 9.7291 16.3102 9.9375 16.4912C10.0401 16.5804 10.3836 16.9229 10.9609 17.2217C11.543 17.5229 12.3571 17.7799 13.4404 17.7617C14.5585 17.743 15.3437 17.4804 15.8896 17.1787C16.1607 17.0289 16.3663 16.8728 16.5186 16.7422C16.5938 16.6777 16.6553 16.6196 16.7021 16.5752C16.7268 16.5518 16.744 16.5352 16.7598 16.5205C16.767 16.5137 16.7731 16.5086 16.7773 16.5049C16.7806 16.502 16.7827 16.5004 16.7832 16.5C16.9965 16.325 17.0273 16.0094 16.8525 15.7959C16.6775 15.5827 16.3629 15.5518 16.1494 15.7266C15.9695 15.874 15.8249 16.0718 15.4053 16.3037C15.0086 16.5228 14.3852 16.7456 13.4238 16.7617C12.5158 16.7769 11.8648 16.5627 11.4209 16.333C10.9728 16.1011 10.7285 15.8525 10.5938 15.7354Z" fill="#55B5A6"/>
<path d="M22.8206 15.2155C23.0915 14.9 23.5357 14.6325 24.0587 14.4004C24.0587 16.6027 24.0651 20.9321 24.0587 21.3771C24.0523 21.8221 23.9451 22.2632 23.8696 22.5399C23.7942 22.8166 23.6363 23.2278 23.4953 23.4507C23.0664 24.1286 22.6221 24.4041 22.0735 24.4004C22.0735 22.1523 22.0236 17.2905 22.1273 16.7053C22.1986 16.3024 22.307 16.0215 22.3749 15.8633C22.4435 15.6529 22.6716 15.3683 22.8206 15.2155Z" fill="#35746E" fill-opacity="0.15"/>
<line x1="9.91152" y1="12.2504" x2="9.91152" y2="13.5504" stroke="#236E67" stroke-width="1.7" stroke-linecap="round"/>
<line x1="16.9115" y1="12.2504" x2="16.9115" y2="13.5504" stroke="#236E67" stroke-width="1.7" stroke-linecap="round"/>
</svg>
