<svg width="38" height="38" viewBox="0 0 38 38" fill="none" xmlns="http://www.w3.org/2000/svg">
<rect width="38" height="38" rx="8" fill="#55B5A6"/>
<g clip-path="url(#clip0_764_7237)">
<path d="M8.85874 21.3232C9.28749 20.5225 9.15624 19.5382 8.53061 18.8819C7.59874 17.9019 7.09999 16.725 7.09999 15.5C7.09999 12.7219 9.89124 9.90005 14.1 9.90005C18.3087 9.90005 21.1 12.7219 21.1 15.5C21.1 18.2782 18.3087 21.1 14.1 21.1C13.5269 21.1 12.9712 21.0432 12.4462 20.9425C11.9912 20.855 11.5187 20.9163 11.1031 21.1263C10.9237 21.2182 10.74 21.3057 10.5519 21.3888C9.85186 21.7038 9.11249 21.9794 8.36874 22.1763C8.49124 21.9751 8.60499 21.7782 8.71436 21.5813C8.76249 21.4982 8.81061 21.4107 8.85436 21.3232H8.85874ZM4.99999 15.5C4.99999 17.3288 5.75249 19.0044 7.00811 20.3257C6.96874 20.4 6.92499 20.4788 6.88561 20.5488C6.43499 21.3538 5.90999 22.1457 5.28436 22.8282C4.99561 23.1344 4.92124 23.5807 5.08311 23.9613C5.25374 24.3507 5.62999 24.6 6.04999 24.6C7.93124 24.6 9.83436 24.0182 11.4181 23.3007C11.6281 23.2044 11.8381 23.1038 12.0394 23.0032C12.7 23.1344 13.3912 23.2 14.1 23.2C19.1269 23.2 23.2 19.7525 23.2 15.5C23.2 11.2475 19.1269 7.80005 14.1 7.80005C9.07311 7.80005 4.99999 11.2475 4.99999 15.5ZM23.9 28.8001C24.6087 28.8001 25.2956 28.73 25.9606 28.6032C26.1619 28.7038 26.3719 28.8044 26.5819 28.9007C28.1656 29.6182 30.0687 30.2001 31.95 30.2001C32.37 30.2001 32.7462 29.9507 32.9125 29.5657C33.0787 29.1807 33 28.7344 32.7112 28.4326C32.09 27.7501 31.565 26.9582 31.11 26.1532C31.0706 26.0788 31.0269 26.0044 30.9875 25.9301C32.2475 24.6044 33 22.9288 33 21.1C33 16.97 29.1544 13.5969 24.3287 13.4088C24.5081 14.0738 24.6 14.7738 24.6 15.5V15.5263C28.415 15.8194 30.9 18.4794 30.9 21.1C30.9 22.325 30.4012 23.5019 29.4694 24.4775C28.8437 25.1338 28.7125 26.1225 29.1412 26.9188C29.1894 27.0063 29.2375 27.0938 29.2812 27.1769C29.3906 27.3738 29.5087 27.5707 29.6269 27.7719C28.8831 27.575 28.1437 27.3038 27.4437 26.9844C27.2556 26.9013 27.0719 26.8138 26.8925 26.7219C26.4769 26.5119 26.0044 26.4507 25.5494 26.5382C25.02 26.6432 24.4687 26.6957 23.8956 26.6957C21.1962 26.6957 19.0831 25.5363 17.9106 23.97C17.2106 24.2063 16.4756 24.3813 15.7231 24.4863C17.2062 27.0413 20.3125 28.8001 23.9 28.8001Z" fill="white"/>
</g>
<defs>
<clipPath id="clip0_764_7237">
<rect width="28" height="28" fill="white" transform="translate(5 5)"/>
</clipPath>
</defs>
</svg>
