<svg width="24" height="24" viewBox="0 0 24 24" fill="none" xmlns="http://www.w3.org/2000/svg">
<path fill-rule="evenodd" clip-rule="evenodd" d="M2.25 22.5H22.5V21H3V1.5H1.5V21.75L2.25 22.5ZM4.5 18.75V6.75L5.25 6H8.25L9 6.75V18.75L8.25 19.5H5.25L4.5 18.75ZM7.5 18V7.5H6V18H7.5ZM16.5 3.75V18.75L17.25 19.5H20.25L21 18.75V3.75L20.25 3H17.25L16.5 3.75ZM19.5 4.5V18H18V4.5H19.5ZM10.5 18.75V9.75L11.25 9H14.25L15 9.75V18.75L14.25 19.5H11.25L10.5 18.75ZM13.5 18V10.5H12V18H13.5Z" fill="currentColor"/>
</svg>
