<svg width="24" height="24" viewBox="0 0 24 24" fill="none" xmlns="http://www.w3.org/2000/svg">
<g clip-path="url(#clip0_719_7214)">
<path d="M14.9385 10.3429C15.1602 10.9695 15.2282 11.6402 15.1369 12.2986C15.0455 12.957 14.7975 13.5839 14.4137 14.1266C14.0299 14.6692 13.5214 15.1119 12.9311 15.4173C12.3407 15.7227 11.6856 15.882 11.0209 15.8818L5.14652 15.8818C4.04485 15.8818 2.9883 15.4441 2.2093 14.6651C1.4303 13.8861 0.992663 12.8296 0.992663 11.7279C0.992663 10.6263 1.4303 9.5697 2.2093 8.7907C2.9883 8.0117 4.04485 7.57406 5.14652 7.57406L7.44015 7.57406M16.5598 15.8818H18.8535C19.9551 15.8818 21.0117 15.4441 21.7907 14.6651C22.5697 13.8861 23.0073 12.8296 23.0073 11.7279C23.0073 10.6263 22.5697 9.5697 21.7907 8.7907C21.0117 8.0117 19.9551 7.57406 18.8535 7.57406L12.9791 7.57406C12.3144 7.57383 11.6593 7.73311 11.0689 8.03854C10.4786 8.34396 9.97011 8.7866 9.58629 9.32928C9.20246 9.87196 8.95447 10.4988 8.86315 11.1572C8.77183 11.8156 8.83985 12.4863 9.06149 13.113" stroke="currentColor" stroke-width="1.5" stroke-linecap="round" stroke-linejoin="round"/>
</g>
<defs>
<clipPath id="clip0_719_7214">
<rect width="24" height="24" fill="white"/>
</clipPath>
</defs>
</svg>
