<svg width="24" height="24" viewBox="0 0 24 24" fill="none" xmlns="http://www.w3.org/2000/svg">
<path d="M12 0.5C12.8284 0.5 13.5 1.17157 13.5 2C13.5 2.44425 13.3069 2.8435 13 3.11816V5H18C19.6569 5 21 6.34315 21 8V13.877C20.3799 13.6347 19.7058 13.5 19 13.5V8C19 7.44772 18.5523 7 18 7H6C5.44772 7 5 7.44772 5 8V18C5 18.5523 5.44772 19 6 19H13.5C13.5 19.7058 13.6347 20.3799 13.877 21H6C4.34315 21 3 19.6569 3 18V8C3 6.34315 4.34315 5 6 5H11V3.11816C10.6931 2.8435 10.5 2.44425 10.5 2C10.5 1.17157 11.1716 0.5 12 0.5ZM2 10V16H0V10H2ZM24 16H23.6084C23.1898 15.3583 22.6418 14.8092 22 14.3906V10H24V16ZM9 11.5C9.82843 11.5 10.5 12.1716 10.5 13C10.5 13.8284 9.82843 14.5 9 14.5C8.17157 14.5 7.5 13.8284 7.5 13C7.5 12.1716 8.17157 11.5 9 11.5ZM15 11.5C15.8284 11.5 16.5 12.1716 16.5 13C16.5 13.8284 15.8284 14.5 15 14.5C14.1716 14.5 13.5 13.8284 13.5 13C13.5 12.1716 14.1716 11.5 15 11.5Z" fill="currentColor"/>
<path d="M22.0378 19.4C22.0582 19.2801 22.0582 19.14 22.0582 19C22.0582 18.86 22.0378 18.74 22.0378 18.6L22.8967 17.94C22.9787 17.8801 22.999 17.7801 22.9377 17.6801L22.1195 16.3C22.0785 16.2199 21.9559 16.1801 21.8739 16.2199L20.8512 16.6199C20.6466 16.46 20.4013 16.3199 20.1558 16.2199L20.0126 15.16C19.9922 15.0801 19.9103 15 19.808 15H18.1715C18.0692 15 17.9873 15.0801 17.9669 15.16L17.8033 16.2199C17.5578 16.3199 17.3329 16.4599 17.1077 16.6199L16.085 16.2199C15.9827 16.1801 15.8804 16.2199 15.8394 16.3L15.0212 17.6801C14.9804 17.76 15.0008 17.8801 15.0621 17.9401L15.9418 18.6C15.9418 18.74 15.9214 18.86 15.9214 19C15.9214 19.14 15.9418 19.26 15.9418 19.4L15.0828 20.06C15.0009 20.1199 14.9805 20.2199 15.0418 20.3199L15.8601 21.7C15.901 21.7801 16.0237 21.8199 16.1056 21.7801L17.1284 21.3801C17.3329 21.54 17.5783 21.6801 17.8238 21.7801L17.9874 22.84C18.0079 22.94 18.0896 23 18.1919 23H19.8284C19.9307 23 20.0126 22.9199 20.033 22.84L20.1968 21.7801C20.4421 21.6801 20.6672 21.5401 20.8922 21.3801L21.915 21.7801C22.0172 21.8199 22.1195 21.7801 22.1605 21.7L22.9787 20.3199C23.0197 20.24 22.9991 20.1199 22.9378 20.0599L22.0378 19.4ZM18.9898 20.4C18.1919 20.4 17.5579 19.7801 17.5579 19C17.5579 18.2199 18.1919 17.6 18.9898 17.6C19.7876 17.6 20.4217 18.2199 20.4217 19C20.4217 19.7801 19.7876 20.4 18.9898 20.4Z" fill="currentColor"/>
</svg>
