<svg width="32" height="32" viewBox="0 0 32 32" fill="none" xmlns="http://www.w3.org/2000/svg">
<rect width="32" height="32" rx="8" fill="#55B5A6"/>
<g clip-path="url(#clip0_732_7298)">
<path d="M7.30735 17.9912C7.67485 17.3049 7.56235 16.4612 7.0261 15.8987C6.22735 15.0587 5.79985 14.0499 5.79985 12.9999C5.79985 10.6187 8.19235 8.1999 11.7998 8.1999C15.4073 8.1999 17.7998 10.6187 17.7998 12.9999C17.7998 15.3812 15.4073 17.7999 11.7998 17.7999C11.3086 17.7999 10.8323 17.7512 10.3823 17.6649C9.99235 17.5899 9.58735 17.6424 9.2311 17.8224C9.07735 17.9012 8.91985 17.9762 8.7586 18.0474C8.1586 18.3174 7.52485 18.5537 6.88735 18.7224C6.99235 18.5499 7.08985 18.3812 7.1836 18.2124C7.22485 18.1412 7.2661 18.0662 7.3036 17.9912H7.30735ZM3.99985 12.9999C3.99985 14.5674 4.64485 16.0037 5.7211 17.1362C5.68735 17.1999 5.64985 17.2674 5.6161 17.3274C5.22985 18.0174 4.77985 18.6962 4.2436 19.2812C3.9961 19.5437 3.93235 19.9262 4.0711 20.2524C4.21735 20.5862 4.53985 20.7999 4.89985 20.7999C6.51235 20.7999 8.1436 20.3012 9.5011 19.6862C9.6811 19.6037 9.8611 19.5174 10.0336 19.4312C10.5998 19.5437 11.1923 19.5999 11.7998 19.5999C16.1086 19.5999 19.5998 16.6449 19.5998 12.9999C19.5998 9.3549 16.1086 6.3999 11.7998 6.3999C7.4911 6.3999 3.99985 9.3549 3.99985 12.9999ZM20.1998 24.3999C20.8073 24.3999 21.3961 24.3399 21.9661 24.2312C22.1386 24.3174 22.3186 24.4037 22.4986 24.4862C23.8561 25.1012 25.4873 25.5999 27.0998 25.5999C27.4598 25.5999 27.7823 25.3862 27.9248 25.0562C28.0673 24.7262 27.9998 24.3437 27.7523 24.0849C27.2198 23.4999 26.7698 22.8212 26.3798 22.1312C26.3461 22.0674 26.3086 22.0037 26.2748 21.9399C27.3548 20.8037 27.9998 19.3674 27.9998 17.7999C27.9998 14.2599 24.7036 11.3687 20.5673 11.2074C20.7211 11.7774 20.7998 12.3774 20.7998 12.9999V13.0224C24.0698 13.2737 26.1998 15.5537 26.1998 17.7999C26.1998 18.8499 25.7723 19.8587 24.9736 20.6949C24.4373 21.2574 24.3248 22.1049 24.6923 22.7874C24.7336 22.8624 24.7748 22.9374 24.8123 23.0087C24.9061 23.1774 25.0073 23.3462 25.1086 23.5187C24.4711 23.3499 23.8373 23.1174 23.2373 22.8437C23.0761 22.7724 22.9186 22.6974 22.7648 22.6187C22.4086 22.4387 22.0036 22.3862 21.6136 22.4612C21.1598 22.5512 20.6873 22.5962 20.1961 22.5962C17.8823 22.5962 16.0711 21.6024 15.0661 20.2599C14.4661 20.4624 13.8361 20.6124 13.1911 20.7024C14.4623 22.8924 17.1248 24.3999 20.1998 24.3999Z" fill="white"/>
</g>
<defs>
<clipPath id="clip0_732_7298">
<rect width="24" height="24" fill="white" transform="translate(4 4)"/>
</clipPath>
</defs>
</svg>
