<svg width="32" height="32" viewBox="0 0 32 32" fill="none" xmlns="http://www.w3.org/2000/svg">
<path d="M28.7564 24.1961C29.4497 24.0851 30.4368 23.7042 30.7831 23.1934C31.1031 22.7214 31.2097 22.2493 31.2097 21.3052V14.6043C31.2097 13.9099 31.1214 13.2057 30.6855 12.7158C30.2497 12.2259 29.4497 12.1266 28.7564 12.1266H23.263C21.8242 12.1394 18.5935 11.9972 18.0364 15.1686C17.4793 18.3401 15.4249 18.7319 15.2097 18.945V21.3052C15.2097 22.0519 15.2631 22.7738 15.6364 23.1934C16.0097 23.613 16.3297 24.0851 17.663 24.1961H24.2823L28.7564 27.2845V24.1961Z" fill="#D5FAF1"/>
<path d="M18.3281 4.21094C18.9078 4.21094 19.4641 4.49533 19.874 5.00098C20.2838 5.50659 20.5137 6.1923 20.5137 6.90723V17.6924C20.5136 18.4073 20.2838 19.0931 19.874 19.5986C19.4641 20.1043 18.9078 20.3887 18.3281 20.3887H9.2793L4.12109 24.8643V20.3887H3.02832C2.44862 20.3887 1.89233 20.1043 1.48242 19.5986C1.07257 19.093 0.841848 18.4074 0.841797 17.6924V6.90723C0.841797 6.19224 1.07263 5.5066 1.48242 5.00098C1.89233 4.49533 2.44862 4.21094 3.02832 4.21094H18.3281ZM14.2793 13.2881C14.1243 13.0599 13.8134 12.9996 13.585 13.1543C13.4226 13.2644 13.3164 13.392 12.9688 13.5508C12.6401 13.7009 12.1159 13.8569 11.3037 13.8682C10.5369 13.8787 9.98921 13.7292 9.62012 13.5713C9.2498 13.4128 9.05112 13.2444 8.93652 13.1621C8.71238 13.0014 8.39935 13.0525 8.23828 13.2764C8.07734 13.5005 8.12868 13.8134 8.35254 13.9746C8.43755 14.0357 8.73373 14.2793 9.22656 14.4902C9.72137 14.7019 10.4083 14.8807 11.3184 14.8682C12.2574 14.8551 12.9197 14.6724 13.3848 14.46C13.6161 14.3542 13.7926 14.2441 13.9248 14.1504C13.9903 14.104 14.044 14.0616 14.084 14.0303C14.1051 14.0137 14.119 14.003 14.1318 13.9932C14.1409 13.9862 14.1454 13.9832 14.1465 13.9824C14.375 13.8275 14.4341 13.5166 14.2793 13.2881Z" fill="#55B5A6"/>
<path d="M19.2174 12.813C19.4455 12.5473 19.8195 12.3221 20.26 12.1266C20.26 13.9812 20.2653 17.627 20.2599 18.0017C20.2546 18.3764 20.1643 18.7479 20.1007 18.9809C20.0372 19.2139 19.9043 19.5602 19.7855 19.7479C19.4243 20.3188 19.0502 20.5507 18.5882 20.5476C18.5883 18.6545 18.5462 14.5603 18.6335 14.0675C18.6936 13.7283 18.7848 13.4917 18.842 13.3585C18.8998 13.1813 19.0919 12.9417 19.2174 12.813Z" fill="#35746E" fill-opacity="0.15"/>
<line x1="8.38074" y1="10.3503" x2="8.38074" y2="11.3767" stroke="#236E67" stroke-width="1.5" stroke-linecap="round"/>
<line x1="14.2755" y1="10.3503" x2="14.2755" y2="11.3767" stroke="#236E67" stroke-width="1.5" stroke-linecap="round"/>
</svg>
